<svg width="24" height="21" viewBox="0 0 24 21" fill="none" xmlns="http://www.w3.org/2000/svg">
<path d="M0 1.2912C0 0.578092 0.578091 0 1.2912 0C2.02214 0 2.61468 0.592543 2.61468 1.32348V20.9999H0V1.2912Z" fill="white"/>
<path d="M6.84375 3.30078C6.84375 2.58767 7.42184 2.00958 8.13495 2.00958C8.86589 2.00958 9.45843 2.60213 9.45843 3.33306V20.9999H6.84375V3.30078Z" fill="white"/>
<path d="M13.6865 10.8367C13.6865 10.1236 14.2646 9.5455 14.9777 9.5455C15.7087 9.5455 16.3012 10.138 16.3012 10.869V21H13.6865V10.8367Z" fill="white"/>
<path d="M20.5312 8.82712C20.5312 8.11401 21.1093 7.53592 21.8225 7.53592C22.5534 7.53592 23.1459 8.12846 23.1459 8.8594V21H20.5312V8.82712Z" fill="white"/>
</svg>
