<svg width="29" height="29" viewBox="0 0 29 29" fill="none" xmlns="http://www.w3.org/2000/svg">
<rect x="0.5" y="0.5" width="28" height="28" rx="6.5" fill="#FF4E3A" stroke="#FF4E3A"/>
<path d="M19.0405 21.5063C13.3853 20.0666 8.93339 15.6147 7.49371 9.95952C6.94869 7.81867 8.79086 6 11 6L12 6C12.5523 6 12.9947 6.44883 13.0492 6.99842C13.1413 7.92696 13.3603 8.81815 13.6888 9.65437L12.1695 11.1737C13.352 13.6447 15.3553 15.648 17.8263 16.8305L19.3456 15.3112C20.1818 15.6397 21.073 15.8587 22.0016 15.9508C22.5512 16.0053 23 16.4477 23 17L23 18C23 20.2091 21.1813 22.0513 19.0405 21.5063Z" fill="white" stroke="white" stroke-linecap="round" stroke-linejoin="round"/>
</svg>
