<svg width="30" height="30" viewBox="0 0 30 30" fill="none" xmlns="http://www.w3.org/2000/svg">
<rect x="0.137695" y="0.12146" width="29.3293" height="29" rx="7" fill="white" fill-opacity="0.6"/>
<path d="M20.3644 22.7815C15.5272 25.5429 9.34185 23.9042 6.54907 19.1212C3.75629 14.3383 5.41365 8.22241 10.2509 5.46099C15.0881 2.69956 21.2735 4.33831 24.0663 9.12124C25.6548 11.8418 25.8036 14.9936 24.7463 17.714" stroke="white" stroke-linecap="round" stroke-linejoin="round"/>
<path d="M22.8376 20.7977C19.1084 24.9093 12.7143 25.2533 8.55594 21.566C4.39761 17.8787 4.04973 11.5564 7.77891 7.44474C11.5081 3.3331 17.9022 2.98912 22.0605 6.67643C24.4258 8.77378 25.5582 11.7236 25.4088 14.6343" stroke="white" stroke-linecap="round" stroke-linejoin="round"/>
<path d="M27.1396 16.5293L24.7045 17.8205L23.3986 15.4126" stroke="white" stroke-linecap="round" stroke-linejoin="round"/>
<path d="M17.8264 19.6001C14.0037 18.4458 10.9823 15.4757 9.79055 11.7065C9.18435 9.78921 10.8698 8.12146 12.8806 8.12146C13.3833 8.12146 13.7849 8.53048 13.8458 9.02947C13.9238 9.66862 14.0832 10.283 14.3132 10.8622L13.1608 12.0017C14.0578 13.855 15.5773 15.3574 17.4517 16.2443L18.6041 15.1049C19.196 15.3348 19.8243 15.4932 20.478 15.5694C20.9717 15.627 21.376 16.0244 21.376 16.5215C21.376 18.5097 19.7298 20.1748 17.8264 19.6001Z" fill="white" stroke="white" stroke-linecap="round" stroke-linejoin="round"/>
</svg>
