<svg width="29" height="29" viewBox="0 0 29 29" fill="none" xmlns="http://www.w3.org/2000/svg">
<path d="M26.5835 24.1667C26.5835 24.834 26.0425 25.375 25.3752 25.375L7.25016 25.375C6.58282 25.375 6.04183 24.834 6.04183 24.1667L6.04183 19.3333L3.68558 19.3333C3.03158 19.3333 2.49316 18.8385 2.42427 18.2028L2.41683 18.0646L2.41683 4.89375C2.41683 4.23975 2.91166 3.70133 3.54734 3.63244L3.68558 3.625L21.6897 3.625C22.3437 3.625 22.8822 4.11982 22.9511 4.75551L22.9585 4.89375L22.9585 9.66667L25.3752 9.66667C26.0425 9.66667 26.5835 10.2077 26.5835 10.875L26.5835 24.1667ZM20.5418 9.66667L20.5418 6.04167L4.8335 6.04167L4.8335 16.9167L6.04183 16.9167L6.04183 10.875C6.04183 10.2077 6.58282 9.66667 7.25016 9.66667L20.5418 9.66667ZM24.1668 22.9583L24.1668 12.0833L8.4585 12.0833L8.4585 22.9583L24.1668 22.9583Z" fill="white"/>
</svg>
