<svg width="30" height="29" viewBox="0 0 30 29" fill="none" xmlns="http://www.w3.org/2000/svg">
<rect x="0.537109" width="29.3293" height="29" rx="7" fill="white" fill-opacity="0.6"/>
<path d="M19.5776 21.5063C13.9224 20.0666 9.4705 15.6147 8.03082 9.95952C7.4858 7.81867 9.32797 6 11.5371 6L12.5371 6C13.0894 6 13.5318 6.44883 13.5863 6.99842C13.6784 7.92696 13.8974 8.81815 14.2259 9.65437L12.7066 11.1737C13.8891 13.6447 15.8924 15.648 18.3634 16.8305L19.8827 15.3112C20.719 15.6397 21.6101 15.8587 22.5387 15.9508C23.0883 16.0053 23.5371 16.4477 23.5371 17L23.5371 18C23.5371 20.2091 21.7184 22.0513 19.5776 21.5063Z" fill="white" stroke="white" stroke-linecap="round" stroke-linejoin="round"/>
</svg>
