<svg width="30" height="30" viewBox="0 0 30 30" fill="none" xmlns="http://www.w3.org/2000/svg">
<path d="M22.0282 22.5842C14.7224 21.0304 8.96958 15.2776 7.41578 7.97183C6.95622 5.81102 8.79086 4 11 4L13.125 4C13.6773 4 14.1206 4.44848 14.1664 4.99886C14.2639 6.16883 14.5309 7.29062 14.9429 8.33957L13.1388 10.1437C14.543 13.0781 16.9219 15.457 19.8563 16.8612L21.6604 15.0571C22.7094 15.4691 23.8312 15.7361 25.0011 15.8336C25.5515 15.8794 26 16.3227 26 16.875L26 19C26 21.2091 24.189 23.0438 22.0282 22.5842Z" stroke="white" stroke-width="2" stroke-linecap="round" stroke-linejoin="round"/>
</svg>
