<svg width="30" height="30" viewBox="0 0 30 30" fill="none" xmlns="http://www.w3.org/2000/svg">
<rect x="0.5" y="0.62146" width="28" height="28" rx="6.5" fill="#FF4E3A" stroke="#FF4E3A"/>
<path d="M19.9999 22.7815C15.217 25.5429 9.10107 23.9042 6.33965 19.1212C3.57822 14.3383 5.21698 8.22241 9.9999 5.46099C14.7828 2.69956 20.8987 4.33831 23.6602 9.12124C25.2309 11.8418 25.3779 14.9936 24.3326 17.714" stroke="white" stroke-linecap="round" stroke-linejoin="round"/>
<path d="M22.4446 20.7977C18.7573 24.9093 12.435 25.2533 8.32337 21.566C4.21173 17.8787 3.86775 11.5564 7.55507 7.44474C11.2424 3.3331 17.5647 2.98912 21.6763 6.67643C24.015 8.77378 25.1348 11.7236 24.987 14.6343" stroke="white" stroke-linecap="round" stroke-linejoin="round"/>
<path d="M26.6992 16.5293L24.2914 17.8205L23.0002 15.4126" stroke="white" stroke-linecap="round" stroke-linejoin="round"/>
<path d="M17.4529 19.5886C13.6781 18.4222 10.6992 15.4433 9.5329 11.6686C8.94595 9.769 10.6118 8.12146 12.6 8.12146C13.0971 8.12146 13.4943 8.52581 13.5532 9.01937C13.6299 9.66215 13.7879 10.28 14.0166 10.8622L12.8771 12.0017C13.764 13.855 15.2665 15.3574 17.1198 16.2443L18.2592 15.1049C18.8415 15.3336 19.4593 15.4916 20.1021 15.5683C20.5956 15.6272 21 16.0244 21 16.5215C21 18.5097 19.3525 20.1755 17.4529 19.5886Z" fill="white" stroke="white" stroke-linecap="round" stroke-linejoin="round"/>
</svg>
