<svg width="25" height="27" viewBox="0 0 25 27" fill="none" xmlns="http://www.w3.org/2000/svg">
<path fill-rule="evenodd" clip-rule="evenodd" d="M0.849388 15.063C0.849388 8.4704 6.05715 3.12603 12.4812 3.12603C18.9053 3.12603 24.1131 8.4704 24.1131 15.063C24.1131 21.6556 18.9053 27 12.4812 27C6.05715 27 0.849388 21.6556 0.849388 15.063ZM2.78803 15.063C2.78803 20.5569 7.12783 25.0105 12.4812 25.0105C15.052 25.0105 17.5176 23.9625 19.3354 22.097C21.1532 20.2314 22.1745 17.7013 22.1745 15.063C22.1745 9.56917 17.8347 5.11553 12.4812 5.11553C7.12783 5.11553 2.78803 9.56917 2.78803 15.063Z" fill="#FF4E3A"/>
<path d="M9.44404 10.0097C9.06211 9.64448 8.46695 9.65525 8.09782 10.0341C7.72868 10.4129 7.71818 11.0237 8.07407 11.4156L11.5119 14.9436V20.3683C11.5119 20.9177 11.9459 21.3631 12.4812 21.3631C13.0166 21.3631 13.4506 20.9177 13.4506 20.3683V14.5325C13.4503 14.2688 13.3481 14.0159 13.1662 13.8295L9.44404 10.0097Z" fill="#FF4E3A"/>
<path d="M24.7981 5.11553C23.2024 2.93173 21.083 1.20908 18.6461 0.115262C18.4083 0.00462553 18.137 -0.0028554 17.8937 0.0945133C17.6505 0.191882 17.4558 0.385863 17.3537 0.632531C17.2421 0.876105 17.2329 1.15602 17.3282 1.40679C17.4235 1.65755 17.6149 1.85714 17.8578 1.95886C19.9863 2.91998 21.8379 4.42732 23.2343 6.33576C23.4173 6.58624 23.7046 6.73366 24.0097 6.73366C24.2196 6.73463 24.424 6.66472 24.5913 6.53471C24.8066 6.37808 24.9503 6.13816 24.9893 5.87033C25.0284 5.60251 24.9593 5.32993 24.7981 5.11553Z" fill="#FF4E3A"/>
<path d="M1.71532 6.30923C3.11163 4.4008 4.96323 2.89345 7.09182 1.93234C7.33464 1.83062 7.52611 1.63102 7.62141 1.38026C7.7167 1.1295 7.70747 0.849578 7.59587 0.606005C7.49382 0.359337 7.29911 0.165355 7.05583 0.0679867C6.81255 -0.029382 6.54127 -0.0219011 6.30344 0.0887354C3.86828 1.19192 1.75321 2.92379 0.164401 5.11553C-0.114774 5.5426 -0.0307218 6.11765 0.358265 6.44186C0.525606 6.57187 0.729974 6.64178 0.939858 6.64081C1.23401 6.65695 1.51935 6.53494 1.71532 6.30923Z" fill="#FF4E3A"/>
</svg>
