<svg width="31" height="31" viewBox="0 0 31 31" fill="none" xmlns="http://www.w3.org/2000/svg">
<path d="M12.8384 4.64104H7.61329C5.24341 4.64104 3.32223 6.56221 3.32223 8.9321V22.3061C3.32223 24.676 5.24341 26.5972 7.61329 26.5972H15.302C15.8627 26.5972 16.3172 27.0517 16.3172 27.6124C16.3172 28.1731 15.8627 28.6277 15.302 28.6277H7.61329C4.1251 28.6202 1.29921 25.7943 1.29176 22.3061V8.9321C1.28817 7.25193 1.95217 5.63916 3.13768 4.44856C4.3232 3.25797 5.93313 2.58708 7.61329 2.5835H12.8384C14.8046 2.5835 16.3985 4.1774 16.3985 6.14359C16.4058 6.98531 17.0864 7.66586 17.9281 7.67321H23.1532C26.6414 7.68065 29.4672 10.5065 29.4747 13.9947C29.4825 14.5676 29.0319 15.0421 28.4595 15.0641C28.194 15.0752 27.9355 14.9774 27.7439 14.7934C27.5522 14.6094 27.444 14.3552 27.4442 14.0895C27.4623 12.9373 27.0191 11.8256 26.2132 11.0019C25.4072 10.1782 24.3055 9.71076 23.1532 9.70368H17.9281C15.9619 9.70368 14.368 8.10977 14.368 6.14359C14.3461 5.31245 13.6698 4.64805 12.8384 4.64104Z" fill="white"/>
<path d="M18.4289 18.2317C18.4289 17.671 18.8835 17.2164 19.4442 17.2164H25.9417C26.5024 17.2164 26.9569 17.671 26.9569 18.2317C26.9569 18.7924 26.5024 19.2469 25.9417 19.2469H19.4442C18.8835 19.2469 18.4289 18.7924 18.4289 18.2317Z" fill="white"/>
<path d="M19.4442 26.5837H22.1515C22.7122 26.5837 23.1667 27.0382 23.1667 27.5989C23.1667 28.1596 22.7122 28.6141 22.1515 28.6141H19.4442C18.8835 28.6141 18.4289 28.1596 18.4289 27.5989C18.4289 27.0382 18.8835 26.5837 19.4442 26.5837Z" fill="white"/>
<path d="M19.4442 21.9C18.8835 21.9 18.4289 22.3546 18.4289 22.9153C18.4289 23.476 18.8835 23.9305 19.4442 23.9305H28.4865C29.0472 23.9305 29.5018 23.476 29.5018 22.9153C29.5018 22.3546 29.0472 21.9 28.4865 21.9H19.4442Z" fill="white"/>
</svg>
