<svg width="28" height="28" viewBox="0 0 28 28" fill="none" xmlns="http://www.w3.org/2000/svg">
<path d="M3.5 6.13666C3.5 4.68691 4.67525 3.51166 6.125 3.51166H9.73C11.1797 3.51166 12.355 4.68691 12.355 6.13666V9.74166C12.355 11.1914 11.1797 12.3667 9.73 12.3667H6.125C4.67525 12.3667 3.5 11.1914 3.5 9.74166V6.13666Z" fill="white"/>
<path d="M15.645 6.13666C15.645 4.68691 16.8203 3.51166 18.27 3.51166H21.875C23.3247 3.51166 24.5 4.68691 24.5 6.13666V9.74166C24.5 11.1914 23.3247 12.3667 21.875 12.3667H18.27C16.8203 12.3667 15.645 11.1914 15.645 9.74166V6.13666Z" fill="white"/>
<path d="M3.5 18.27C3.5 16.8202 4.67525 15.645 6.125 15.645H9.73C11.1797 15.645 12.355 16.8202 12.355 18.27V21.875C12.355 23.3247 11.1797 24.5 9.73 24.5H6.125C4.67525 24.5 3.5 23.3247 3.5 21.875V18.27Z" fill="white"/>
<path d="M15.645 18.27C15.645 16.8202 16.8203 15.645 18.27 15.645H21.875C23.3247 15.645 24.5 16.8202 24.5 18.27V21.875C24.5 23.3247 23.3247 24.5 21.875 24.5H18.27C16.8203 24.5 15.645 23.3247 15.645 21.875V18.27Z" fill="white"/>
</svg>
