<svg width="25" height="25" viewBox="0 0 25 25" fill="none" xmlns="http://www.w3.org/2000/svg">
<g id="Lock">
<path id="Icon" d="M12.5007 1.04175C16.5277 1.04175 19.7923 4.30634 19.7923 8.33342V10.4167H21.8757C22.4509 10.4167 22.9173 10.8831 22.9173 11.4584V23.9584C22.9173 24.5337 22.4509 25.0001 21.8757 25.0001H3.12565C2.55035 25.0001 2.08398 24.5337 2.08398 23.9584V11.4584C2.08398 10.8831 2.55035 10.4167 3.12565 10.4167H5.20898V8.33342C5.20898 4.30634 8.47357 1.04175 12.5007 1.04175ZM20.834 12.5001H4.16732V22.9167H20.834V12.5001ZM12.5007 14.5834C13.6512 14.5834 14.584 15.5162 14.584 16.6667C14.584 17.4517 14.1499 18.1352 13.5087 18.4904C13.531 18.5731 13.5423 18.6603 13.5423 18.7501V19.7917C13.5423 20.367 13.0759 20.8334 12.5007 20.8334C11.9254 20.8334 11.459 20.367 11.459 19.7917V18.7501C11.459 18.6603 11.4703 18.5731 11.4917 18.49C10.8514 18.1352 10.4173 17.4517 10.4173 16.6667C10.4173 15.5162 11.3501 14.5834 12.5007 14.5834ZM12.5007 3.12508C9.69986 3.12508 7.41542 5.33582 7.29713 8.10749L7.29232 8.33342L7.29091 10.3402L7.29241 10.4169L17.709 10.4167V8.33342C17.709 5.45693 15.3771 3.12508 12.5007 3.12508Z" fill="white"/>
</g>
</svg>
