<svg width="25" height="25" viewBox="0 0 25 25" fill="none" xmlns="http://www.w3.org/2000/svg">
<g id="User">
<path id="Icon" d="M12.5007 14.5834C18.1561 14.5834 22.7589 19.0904 22.9133 24.7085L22.9173 25.0001H20.834C20.834 20.3977 17.103 16.6667 12.5007 16.6667C7.98512 16.6667 4.30842 20.2582 4.17128 24.7405L4.16732 25.0001H2.08398C2.08398 19.2471 6.74768 14.5834 12.5007 14.5834ZM12.5007 1.04175C15.9524 1.04175 18.7507 3.83997 18.7507 7.29175C18.7507 10.7435 15.9524 13.5417 12.5007 13.5417C9.04887 13.5417 6.25065 10.7435 6.25065 7.29175C6.25065 3.83997 9.04887 1.04175 12.5007 1.04175ZM12.5007 3.12508C10.1995 3.12508 8.33398 4.99056 8.33398 7.29175C8.33398 9.59294 10.1995 11.4584 12.5007 11.4584C14.8018 11.4584 16.6673 9.59294 16.6673 7.29175C16.6673 4.99056 14.8018 3.12508 12.5007 3.12508Z" fill="white"/>
</g>
</svg>
