<svg width="30" height="30" viewBox="0 0 30 30" fill="none" xmlns="http://www.w3.org/2000/svg">
<path fill-rule="evenodd" clip-rule="evenodd" d="M22.2925 20.2569C24.0882 17.941 24.9344 15.0277 24.6591 12.1097C24.3839 9.19176 23.0077 6.48829 20.8107 4.54932C18.6136 2.61036 15.7607 1.58155 12.8324 1.67221C9.90398 1.76286 7.12012 2.96616 5.04711 5.03731C2.9723 7.1099 1.76555 9.89595 1.67277 12.8277C1.57999 15.7595 2.60816 18.6163 4.54776 20.8161C6.48737 23.0158 9.19243 24.3929 12.1117 24.6666C15.031 24.9404 17.9447 24.0903 20.2592 22.2896L20.3212 22.3544L26.4296 28.4667C26.5634 28.6006 26.7222 28.7068 26.897 28.7792C27.0719 28.8516 27.2592 28.8889 27.4484 28.8889C27.6376 28.8889 27.825 28.8516 27.9998 28.7792C28.1746 28.7068 28.3334 28.6006 28.4672 28.4667C28.601 28.3329 28.7071 28.174 28.7795 27.9991C28.8519 27.8243 28.8892 27.6368 28.8892 27.4475C28.8892 27.2583 28.8519 27.0708 28.7795 26.8959C28.7071 26.7211 28.601 26.5622 28.4672 26.4283L22.3573 20.3174C22.3363 20.2967 22.3147 20.2765 22.2925 20.2569ZM19.3031 7.07572C20.1161 7.87592 20.7627 8.82925 21.2056 9.8807C21.6485 10.9322 21.8789 12.0609 21.8836 13.2019C21.8882 14.3429 21.667 15.4735 21.2327 16.5285C20.7983 17.5836 20.1595 18.5421 19.353 19.3489C18.5465 20.1557 17.5884 20.7948 16.5338 21.2293C15.4792 21.6638 14.349 21.8851 13.2085 21.8805C12.0679 21.8758 10.9396 21.6453 9.88858 21.2022C8.83754 20.7592 7.8846 20.1123 7.08471 19.299C5.48619 17.6735 4.59446 15.4821 4.60374 13.2019C4.61302 10.9217 5.52257 8.73762 7.13426 7.12529C8.74595 5.51295 10.9292 4.60304 13.2085 4.59376C15.4877 4.58447 17.6783 5.47657 19.3031 7.07572Z" fill="white" fill-opacity="0.6"/>
</svg>
