<svg width="43" height="42" viewBox="0 0 43 42" fill="none" xmlns="http://www.w3.org/2000/svg">
<g id="gg:search">
<path id="Vector" fill-rule="evenodd" clip-rule="evenodd" d="M32.1069 28.3598C34.6163 25.1175 35.799 21.0389 35.4143 16.9538C35.0296 12.8686 33.1064 9.08374 30.036 6.36919C26.9657 3.65464 22.9787 2.21431 18.8863 2.34122C14.7939 2.46814 10.9035 4.15276 8.00643 7.05237C5.10689 9.95399 3.42045 13.8545 3.29078 17.9589C3.16112 22.0634 4.598 26.063 7.30859 29.1426C10.0192 32.2222 13.7995 34.1501 17.8792 34.5334C21.9589 34.9167 26.0309 33.7266 29.2654 31.2055L29.3519 31.2963L37.8885 39.8536C38.0755 40.041 38.2974 40.1896 38.5417 40.291C38.786 40.3924 39.0478 40.4446 39.3123 40.4446C39.5767 40.4446 39.8385 40.3924 40.0828 40.291C40.3271 40.1896 40.549 40.041 40.736 39.8536C40.923 39.6662 41.0713 39.4437 41.1725 39.1989C41.2737 38.9541 41.3258 38.6917 41.3258 38.4267C41.3258 38.1617 41.2737 37.8993 41.1725 37.6545C41.0713 37.4096 40.923 37.1872 40.736 36.9998L32.1974 28.4445C32.168 28.4155 32.1378 28.3872 32.1069 28.3598ZM27.9291 9.90614C29.0653 11.0264 29.969 12.3611 30.5879 13.8331C31.2069 15.3052 31.5289 16.8854 31.5354 18.4828C31.5418 20.0802 31.2327 21.6631 30.6257 23.1401C30.0188 24.6171 29.126 25.9591 27.999 27.0886C26.8719 28.2182 25.5328 29.1129 24.059 29.7212C22.5852 30.3295 21.0058 30.6393 19.4119 30.6328C17.818 30.6263 16.2412 30.3036 14.7724 29.6833C13.3036 29.063 11.9718 28.1574 10.854 27.0187C8.62005 24.7431 7.37385 21.675 7.38682 18.4828C7.39979 15.2906 8.67088 12.2328 10.9232 9.97554C13.1756 7.71827 16.2267 6.4444 19.4119 6.4314C22.5972 6.4184 25.6585 7.66733 27.9291 9.90614Z" fill="white" fill-opacity="0.6"/>
</g>
</svg>
