<svg width="25" height="26" viewBox="0 0 25 26" fill="none" xmlns="http://www.w3.org/2000/svg">
<path fill-rule="evenodd" clip-rule="evenodd" d="M8.49114 1.28826C8.49114 0.82169 8.81378 0.417125 9.26865 0.313321C11.1324 -0.112007 13.0435 -0.097817 14.859 0.316414C15.3139 0.420205 15.6365 0.824777 15.6365 1.29136V4.65867C15.6365 5.42847 16.4699 5.9096 17.1365 5.5247L20.0549 3.83977C20.4594 3.60625 20.9716 3.68379 21.2888 4.02655C21.9153 4.70349 22.4761 5.45969 22.9557 6.29036C23.4353 7.121 23.8098 7.98472 24.0828 8.86576C24.221 9.31186 24.032 9.79424 23.6276 10.0277L20.7091 11.7127C20.0425 12.0976 20.0425 13.0599 20.7091 13.4448L23.6254 15.1285C24.0295 15.3617 24.2185 15.8435 24.0809 16.2893C23.5319 18.0686 22.5887 19.7308 21.2885 21.1322C20.9711 21.4742 20.4594 21.5514 20.0554 21.3181L17.1365 19.6329C16.4699 19.248 15.6365 19.7291 15.6365 20.4989L15.6365 23.8693C15.6365 24.3359 15.3139 24.7404 14.859 24.8442C12.9952 25.2696 11.0841 25.2554 9.26869 24.8411C8.8138 24.7373 8.49114 24.3328 8.49114 23.8662L8.49114 20.4988C8.49114 19.729 7.65781 19.2479 6.99114 19.6328L4.07273 21.3177C3.66827 21.5512 3.15604 21.4737 2.83882 21.131C2.21231 20.454 1.65155 19.6978 1.17198 18.8672C0.692388 18.0365 0.317898 17.1728 0.0449081 16.2917C-0.0933132 15.8456 0.0956519 15.3632 0.500108 15.1297L3.41847 13.4448C4.08514 13.0599 4.08514 12.0977 3.41847 11.7128L0.502308 10.0291C0.098238 9.79583 -0.0908024 9.31411 0.046755 8.86827C0.595744 7.08892 1.53899 5.42678 2.83923 4.02536C3.15656 3.68333 3.66825 3.60619 4.07231 3.83948L6.99114 5.52467C7.65781 5.90957 8.49114 5.42844 8.49114 4.65864V1.28826ZM12.0654 16.4375C14.1966 16.4375 15.9243 14.7098 15.9243 12.5786C15.9243 10.4473 14.1966 8.71963 12.0654 8.71963C9.93416 8.71963 8.20644 10.4473 8.20644 12.5786C8.20644 14.7098 9.93416 16.4375 12.0654 16.4375Z" fill="white"/>
</svg>
